<svg width="16" height="16" viewBox="0 0 16 16" fill="none" xmlns="http://www.w3.org/2000/svg">
<g clip-path="url(#clip0_1_4615)">
<path d="M7.9999 0.5625C3.59415 0.5625 0.0101318 4.147 0.0101318 8.55275C0.0101318 11.3208 1.41138 13.8525 3.75862 15.3247C3.99212 15.4727 4.30062 15.401 4.44763 15.167C4.59465 14.933 4.52388 14.6245 4.28988 14.478C3.44463 13.9475 2.74238 13.2585 2.20513 12.4643L2.72938 12.1615C2.96862 12.0233 3.05063 11.7178 2.91238 11.4785C2.77363 11.2388 2.46763 11.1573 2.22938 11.2955L1.70438 11.5985C1.32313 10.8093 1.09037 9.94551 1.02812 9.04501H1.58462C1.86087 9.04501 2.08462 8.82127 2.08462 8.54501C2.08462 8.26876 1.86087 8.04501 1.58462 8.04501H1.03062C1.09687 7.12803 1.33962 6.25902 1.72687 5.47327L2.22937 5.76327C2.30516 5.80725 2.39126 5.83037 2.4789 5.83027C2.65163 5.83027 2.81963 5.74052 2.91238 5.58027C3.05062 5.34102 2.96863 5.03527 2.72938 4.89725L2.23188 4.61025C2.73363 3.8785 3.37038 3.24625 4.10663 2.75052L4.38813 3.23802C4.48087 3.39877 4.64887 3.48802 4.82162 3.48802C4.90925 3.48811 4.99534 3.46499 5.07113 3.42102C5.31037 3.28277 5.39238 2.97727 5.25413 2.73802L4.97362 2.25252C5.74438 1.88077 6.59362 1.64852 7.48887 1.58352V2.20652C7.48887 2.48277 7.71262 2.70652 7.98887 2.70652C8.26512 2.70652 8.48887 2.48277 8.48887 2.20652V1.58152C9.40437 1.64527 10.2721 1.8845 11.0574 2.26823L10.7861 2.73775C10.6479 2.97698 10.7299 3.28275 10.9691 3.42075C11.0449 3.46473 11.131 3.48785 11.2186 3.48775C11.3914 3.48775 11.5594 3.3985 11.6521 3.23775L11.9221 2.77C12.6521 3.26703 13.2822 3.89679 13.7796 4.6265L13.3114 4.897C13.0721 5.03523 12.9901 5.34075 13.1284 5.57997C13.2211 5.74073 13.3891 5.82997 13.5619 5.82997C13.6469 5.82997 13.7329 5.80848 13.8114 5.76298L14.2821 5.49123C14.6664 6.27673 14.9064 7.14472 14.9704 8.0605H14.4214C14.1451 8.0605 13.9214 8.28425 13.9214 8.5605C13.9214 8.83675 14.1451 9.0605 14.4214 9.0605H14.9701C14.9069 9.94925 14.6796 10.8017 14.3061 11.581L13.8111 11.2952C13.5724 11.157 13.2656 11.2395 13.1281 11.4783C12.9899 11.7175 13.0719 12.0233 13.3111 12.1613L13.8076 12.448C13.2592 13.2642 12.5351 13.9698 11.6614 14.5077C11.4262 14.6528 11.3534 14.961 11.4979 15.1957C11.5927 15.349 11.7562 15.4335 11.9242 15.4335C12.0166 15.4335 12.1072 15.4078 12.1859 15.3592C14.5682 13.892 15.9902 11.347 15.9902 8.5525C15.9902 4.147 12.4057 0.5625 7.99993 0.5625H7.9999ZM11.6894 6.99375C11.9284 6.8555 12.0104 6.55003 11.8724 6.31078C11.7344 6.07178 11.4284 5.98978 11.1894 6.12803L8.47338 7.69603C8.32838 7.61403 8.16313 7.56328 7.98463 7.56328C7.43338 7.56328 6.98713 8.01002 6.98713 8.56027C6.98713 9.11102 7.43363 9.55777 7.98463 9.55777C8.53588 9.55777 8.98213 9.11102 8.98213 8.56027C8.98213 8.55927 8.98188 8.55802 8.98188 8.557L11.6894 6.99375Z" fill="#606060"/>
</g>
<defs>
<clipPath id="clip0_1_4615">
<rect width="16" height="16" fill="white"/>
</clipPath>
</defs>
</svg>
