<svg width="16" height="16" viewBox="0 0 16 16" fill="none" xmlns="http://www.w3.org/2000/svg">
<g clip-path="url(#clip0_1_4621)">
<path d="M5.33337 6V10M8.00004 6V10M5.33337 8H8.66671C9.28804 8 9.59871 8 9.84337 7.89867C10.0053 7.83166 10.1523 7.7334 10.2762 7.60952C10.4001 7.48563 10.4984 7.33855 10.5654 7.17667C10.6667 6.932 10.6667 6.62133 10.6667 6" stroke="#606060" stroke-linecap="round"/>
<path d="M4.66671 2.22532C5.67972 1.63925 6.82971 1.33152 8.00004 1.33332C11.682 1.33332 14.6667 4.31799 14.6667 7.99999C14.6667 11.682 11.682 14.6667 8.00004 14.6667C4.31804 14.6667 1.33337 11.682 1.33337 7.99999C1.33337 6.78599 1.65804 5.64665 2.22537 4.66665" stroke="#606060" stroke-linecap="round"/>
</g>
<defs>
<clipPath id="clip0_1_4621">
<rect width="16" height="16" fill="white"/>
</clipPath>
</defs>
</svg>
