<svg width="16" height="16" viewBox="0 0 16 16" fill="none" xmlns="http://www.w3.org/2000/svg">
<path d="M2.33337 14.6667V3.33334C2.33337 2.00001 3.22671 1.33334 4.33337 1.33334H9.66671C10.7734 1.33334 11.6667 2.00001 11.6667 3.33334V14.6667H2.33337Z" stroke="#606060" stroke-linecap="round" stroke-linejoin="round"/>
<path d="M1.33337 14.6667H12.6667" stroke="#606060" stroke-linecap="round" stroke-linejoin="round"/>
<path d="M5.59337 6.66812H8.41337C9.10671 6.66812 9.67337 6.33479 9.67337 5.40812V4.58812C9.67337 3.66146 9.10671 3.32812 8.41337 3.32812H5.59337C4.90004 3.32812 4.33337 3.66146 4.33337 4.58812V5.40812C4.33337 6.33479 4.90004 6.66812 5.59337 6.66812Z" stroke="#606060" stroke-linecap="round" stroke-linejoin="round"/>
<path d="M4.33337 8.66666H6.33337" stroke="#606060" stroke-linecap="round" stroke-linejoin="round"/>
<path d="M11.6666 10.6733L14.6666 10.6667V6.66667L13.3333 6" stroke="#606060" stroke-linecap="round" stroke-linejoin="round"/>
</svg>
