<svg width="17" height="18" viewBox="0 0 17 18" fill="none" xmlns="http://www.w3.org/2000/svg">
<path d="M5.8512 17.0602L7.79287 15.4269C8.08454 15.1769 8.56787 15.1769 8.85954 15.4269L10.8012 17.0602C11.2512 17.2852 11.8012 17.0602 11.9679 16.5769L12.3345 15.4685C12.4262 15.2019 12.3345 14.8102 12.1345 14.6102L10.2429 12.7102C10.1012 12.5769 9.99287 12.3102 9.99287 12.1185V9.74352C9.99287 9.39352 10.2512 9.22685 10.5762 9.36019L14.6679 11.1269C15.3095 11.4019 15.8345 11.0602 15.8345 10.3602V9.28519C15.8345 8.72685 15.4179 8.08519 14.9012 7.86852L10.2429 5.86019C10.1095 5.80185 9.99287 5.62685 9.99287 5.47685V2.97685C9.99287 2.19352 9.41787 1.26852 8.71787 0.910187C8.46787 0.785187 8.1762 0.785187 7.9262 0.910187C7.2262 1.26852 6.6512 2.20185 6.6512 2.98519V5.48519C6.6512 5.63519 6.53454 5.81019 6.4012 5.86852L1.7512 7.87685C1.23454 8.08519 0.817871 8.72685 0.817871 9.28519V10.3602C0.817871 11.0602 1.34287 11.4019 1.98454 11.1269L6.0762 9.36019C6.39287 9.21852 6.65954 9.39352 6.65954 9.74352V12.1185C6.65954 12.3102 6.5512 12.5769 6.41787 12.7102L4.5262 14.6102C4.3262 14.8102 4.23454 15.1935 4.3262 15.4685L4.69287 16.5769C4.84287 17.0602 5.39287 17.2935 5.8512 17.0602Z" stroke="#292D32" stroke-linecap="round" stroke-linejoin="round"/>
</svg>
