<svg width="16" height="16" viewBox="0 0 16 16" fill="none" xmlns="http://www.w3.org/2000/svg">
<g clip-path="url(#clip0_1_1426)">
<path d="M5.3335 6V10M8.00016 6V10M5.3335 8H8.66683C9.28816 8 9.59883 8 9.8435 7.89867C10.0054 7.83166 10.1525 7.7334 10.2763 7.60952C10.4002 7.48563 10.4985 7.33855 10.5655 7.17667C10.6668 6.932 10.6668 6.62133 10.6668 6" stroke="#606060" stroke-linecap="round"/>
<path d="M4.66683 2.22532C5.67984 1.63925 6.82983 1.33152 8.00016 1.33332C11.6822 1.33332 14.6668 4.31799 14.6668 7.99999C14.6668 11.682 11.6822 14.6667 8.00016 14.6667C4.31816 14.6667 1.3335 11.682 1.3335 7.99999C1.3335 6.78599 1.65816 5.64665 2.2255 4.66665" stroke="#606060" stroke-linecap="round"/>
</g>
<defs>
<clipPath id="clip0_1_1426">
<rect width="16" height="16" fill="white"/>
</clipPath>
</defs>
</svg>
