<svg width="16" height="16" viewBox="0 0 16 16" fill="none" xmlns="http://www.w3.org/2000/svg">
<path d="M2.3335 14.6667V3.33334C2.3335 2.00001 3.22683 1.33334 4.3335 1.33334H9.66683C10.7735 1.33334 11.6668 2.00001 11.6668 3.33334V14.6667H2.3335Z" stroke="#606060" stroke-linecap="round" stroke-linejoin="round"/>
<path d="M1.3335 14.6667H12.6668" stroke="#606060" stroke-linecap="round" stroke-linejoin="round"/>
<path d="M5.5935 6.66812H8.4135C9.10683 6.66812 9.67349 6.33479 9.67349 5.40812V4.58812C9.67349 3.66146 9.10683 3.32812 8.4135 3.32812H5.5935C4.90016 3.32812 4.3335 3.66146 4.3335 4.58812V5.40812C4.3335 6.33479 4.90016 6.66812 5.5935 6.66812Z" stroke="#606060" stroke-linecap="round" stroke-linejoin="round"/>
<path d="M4.3335 8.66666H6.3335" stroke="#606060" stroke-linecap="round" stroke-linejoin="round"/>
<path d="M11.6665 10.6733L14.6665 10.6667V6.66667L13.3332 6" stroke="#606060" stroke-linecap="round" stroke-linejoin="round"/>
</svg>
