<svg width="24" height="24" viewBox="0 0 24 24" fill="none" xmlns="http://www.w3.org/2000/svg">
<path d="M22.5926 15.8148V13.8185C22.5926 12.9222 22.063 12.2296 21.3704 12.1481V5.22222C21.3704 4.52963 20.8407 4 20.1481 4H3.85185C3.15926 4 2.62963 4.52963 2.62963 5.22222V12.1481C1.93704 12.2296 1.40741 12.9222 1.40741 13.8185V15.8148C1.16296 16.0593 1 16.4259 1 16.7926V17.2407C1 17.9333 1.52963 18.5444 2.22222 18.6259V19.0333C2.22222 19.2778 2.38519 19.4407 2.62963 19.4407H3.44444C3.68889 19.4407 3.85185 19.2778 3.85185 19.0333V18.6259H20.1481V19.0333C20.1481 19.2778 20.3111 19.4407 20.5556 19.4407H21.3704C21.6148 19.4407 21.7778 19.2778 21.7778 19.0333V18.6259C22.4704 18.5444 23 17.9333 23 17.2407V16.7926C23 16.4259 22.837 16.0593 22.5926 15.8148ZM3.44444 5.22222C3.44444 4.97778 3.60741 4.81481 3.85185 4.81481H20.1481C20.3926 4.81481 20.5556 4.97778 20.5556 5.22222V12.1481H19.7407V10.3963C19.7407 9.54074 19.0481 8.88889 18.2333 8.88889H14.7704C13.9148 8.88889 13.263 9.58148 13.263 10.3963V12.1481H10.8185V10.3963C10.8185 9.54074 10.1259 8.88889 9.31111 8.88889H5.84815C4.99259 8.88889 4.34074 9.58148 4.34074 10.3963V12.1481H3.52593V5.22222H3.44444ZM18.9259 12.1481H14.037V10.3963C14.037 9.98889 14.363 9.7037 14.7296 9.7037H18.1926C18.6 9.7037 18.8852 10.0296 18.8852 10.3963V12.1481H18.9259ZM9.96296 12.1481H5.07407V10.3963C5.07407 9.98889 5.4 9.7037 5.76667 9.7037H9.22963C9.63704 9.7037 9.92222 10.0296 9.92222 10.3963V12.1481H9.96296ZM2.79259 12.963H3.03704H4.66667H10.3704H13.6296H19.3333H20.963H21.2074C21.4519 12.963 21.7778 13.3296 21.7778 13.8185V15.4074C21.737 15.4074 21.6556 15.4074 21.6148 15.4074H2.38519C2.3037 15.4074 2.26296 15.4074 2.22222 15.4074V13.8185C2.22222 13.3296 2.50741 12.963 2.79259 12.963ZM22.1852 17.2815C22.1852 17.6074 21.9 17.8519 21.6148 17.8519H2.38519C2.1 17.8519 1.81481 17.5667 1.81481 17.2815V16.8333C1.81481 16.5074 2.1 16.2222 2.38519 16.2222H21.5741C21.9 16.2222 22.1444 16.5074 22.1444 16.7926V17.2815H22.1852Z" fill="#203351"/>
</svg>
