<svg width="40" height="42" viewBox="0 0 40 42" fill="none" xmlns="http://www.w3.org/2000/svg">
<rect x="0.5" y="0.5" width="39" height="40.9972" rx="19.5" stroke="#F5F5F5"/>
<path d="M20.0196 11.91C16.7096 11.91 14.0196 14.6 14.0196 17.91V20.8C14.0196 21.41 13.7596 22.34 13.4496 22.86L12.2996 24.77C11.5896 25.95 12.0796 27.26 13.3796 27.7C17.6896 29.14 22.3396 29.14 26.6496 27.7C27.8596 27.3 28.3896 25.87 27.7296 24.77L26.5796 22.86C26.2796 22.34 26.0196 21.41 26.0196 20.8V17.91C26.0196 14.61 23.3196 11.91 20.0196 11.91Z" stroke="#EEEEEE" stroke-width="1.5" stroke-miterlimit="10" stroke-linecap="round"/>
<path d="M21.8699 12.2C21.5599 12.11 21.2399 12.04 20.9099 12C19.9499 11.88 19.0299 11.95 18.1699 12.2C18.4599 11.46 19.1799 10.94 20.0199 10.94C20.8599 10.94 21.5799 11.46 21.8699 12.2Z" stroke="#EEEEEE" stroke-width="1.5" stroke-miterlimit="10" stroke-linecap="round" stroke-linejoin="round"/>
<path d="M23.0195 28.06C23.0195 29.71 21.6695 31.06 20.0195 31.06C19.1995 31.06 18.4395 30.72 17.8995 30.18C17.3595 29.64 17.0195 28.88 17.0195 28.06" stroke="#EEEEEE" stroke-width="1.5" stroke-miterlimit="10"/>
<circle cx="25.5" cy="15.5" r="3.5" fill="#DA2C2C"/>
</svg>
