<svg width="16" height="16" viewBox="0 0 16 16" fill="none" xmlns="http://www.w3.org/2000/svg">
<g clip-path="url(#clip0_1_1421)">
<path d="M8.00002 0.5625C3.59427 0.5625 0.0102539 4.147 0.0102539 8.55275C0.0102539 11.3208 1.4115 13.8525 3.75874 15.3247C3.99224 15.4727 4.30074 15.401 4.44775 15.167C4.59477 14.933 4.524 14.6245 4.29 14.478C3.44475 13.9475 2.7425 13.2585 2.20525 12.4643L2.7295 12.1615C2.96874 12.0233 3.05075 11.7178 2.9125 11.4785C2.77375 11.2388 2.46775 11.1573 2.2295 11.2955L1.7045 11.5985C1.32325 10.8093 1.09049 9.94551 1.02824 9.04501H1.58474C1.86099 9.04501 2.08474 8.82127 2.08474 8.54501C2.08474 8.26876 1.86099 8.04501 1.58474 8.04501H1.03074C1.09699 7.12803 1.33974 6.25902 1.72699 5.47327L2.22949 5.76327C2.30529 5.80725 2.39138 5.83037 2.47902 5.83027C2.65175 5.83027 2.81975 5.74052 2.9125 5.58027C3.05074 5.34102 2.96875 5.03527 2.7295 4.89725L2.232 4.61025C2.73375 3.8785 3.3705 3.24625 4.10675 2.75052L4.38825 3.23802C4.48099 3.39877 4.64899 3.48802 4.82174 3.48802C4.90937 3.48811 4.99546 3.46499 5.07125 3.42102C5.31049 3.28277 5.3925 2.97727 5.25425 2.73802L4.97374 2.25252C5.7445 1.88077 6.59374 1.64852 7.48899 1.58352V2.20652C7.48899 2.48277 7.71274 2.70652 7.98899 2.70652C8.26524 2.70652 8.48899 2.48277 8.48899 2.20652V1.58152C9.40449 1.64527 10.2722 1.8845 11.0575 2.26823L10.7862 2.73775C10.648 2.97698 10.73 3.28275 10.9692 3.42075C11.045 3.46473 11.1311 3.48785 11.2188 3.48775C11.3915 3.48775 11.5595 3.3985 11.6522 3.23775L11.9222 2.77C12.6522 3.26703 13.2823 3.89679 13.7797 4.6265L13.3115 4.897C13.0723 5.03523 12.9902 5.34075 13.1285 5.57997C13.2212 5.74073 13.3892 5.82997 13.562 5.82997C13.647 5.82997 13.733 5.80848 13.8115 5.76298L14.2822 5.49123C14.6665 6.27673 14.9065 7.14472 14.9705 8.0605H14.4215C14.1453 8.0605 13.9215 8.28425 13.9215 8.5605C13.9215 8.83675 14.1453 9.0605 14.4215 9.0605H14.9703C14.907 9.94925 14.6798 10.8017 14.3063 11.581L13.8113 11.2952C13.5725 11.157 13.2658 11.2395 13.1283 11.4783C12.99 11.7175 13.072 12.0233 13.3113 12.1613L13.8078 12.448C13.2593 13.2642 12.5353 13.9698 11.6615 14.5077C11.4263 14.6528 11.3535 14.961 11.498 15.1957C11.5928 15.349 11.7563 15.4335 11.9243 15.4335C12.0167 15.4335 12.1074 15.4078 12.1861 15.3592C14.5683 13.892 15.9903 11.347 15.9903 8.5525C15.9903 4.147 12.4058 0.5625 8.00005 0.5625H8.00002ZM11.6895 6.99375C11.9285 6.8555 12.0105 6.55003 11.8725 6.31078C11.7345 6.07178 11.4285 5.98978 11.1895 6.12803L8.4735 7.69603C8.3285 7.61403 8.16325 7.56328 7.98475 7.56328C7.4335 7.56328 6.98725 8.01002 6.98725 8.56027C6.98725 9.11102 7.43375 9.55777 7.98475 9.55777C8.536 9.55777 8.98225 9.11102 8.98225 8.56027C8.98225 8.55927 8.982 8.55802 8.982 8.557L11.6895 6.99375Z" fill="#606060"/>
</g>
<defs>
<clipPath id="clip0_1_1421">
<rect width="16" height="16" fill="white"/>
</clipPath>
</defs>
</svg>
