<svg width="341" height="200" viewBox="0 0 341 200" fill="none" xmlns="http://www.w3.org/2000/svg">
<rect width="340.11" height="199.125" rx="10.7152" fill="url(#paint0_linear_1_799)"/>
<mask id="mask0_1_799" style="mask-type:alpha" maskUnits="userSpaceOnUse" x="0" y="0" width="341" height="200">
<rect width="340.11" height="199.125" rx="10.7152" fill="#ED713C"/>
</mask>
<g mask="url(#mask0_1_799)">
<ellipse opacity="0.1" cx="26.4533" cy="230.501" rx="173.294" ry="122.289" fill="black"/>
<ellipse opacity="0.08" cx="313.657" cy="-31.3917" rx="173.294" ry="122.289" fill="black"/>
</g>
<path opacity="0.9" d="M31.0431 84.4822L31.9431 86.1074L28.4678 87.5575L31.9681 88.9826L31.018 90.6578L27.9928 88.4576L28.3928 92.2329H26.5176L26.8927 88.4576L23.8674 90.6828L22.8923 88.9826L26.3676 87.5325L22.8923 86.1324L23.8174 84.4572L26.9177 86.6824L26.5176 82.8821H28.4178L27.9928 86.6824L31.0431 84.4822ZM44.5417 84.4822L45.4418 86.1074L41.9665 87.5575L45.4668 88.9826L44.5167 90.6578L41.4915 88.4576L41.8915 92.2329H40.0163L40.3914 88.4576L37.3661 90.6828L36.391 88.9826L39.8663 87.5325L36.391 86.1324L37.3161 84.4572L40.4164 86.6824L40.0163 82.8821H41.9165L41.4915 86.6824L44.5417 84.4822ZM58.0404 84.4822L58.9405 86.1074L55.4652 87.5575L58.9655 88.9826L58.0154 90.6578L54.9902 88.4576L55.3902 92.2329H53.515L53.8901 88.4576L50.8648 90.6828L49.8897 88.9826L53.365 87.5325L49.8897 86.1324L50.8148 84.4572L53.9151 86.6824L53.515 82.8821H55.4152L54.9902 86.6824L58.0404 84.4822ZM71.5391 84.4822L72.4392 86.1074L68.9639 87.5575L72.4642 88.9826L71.5141 90.6578L68.4889 88.4576L68.8889 92.2329H67.0137L67.3888 88.4576L64.3635 90.6828L63.3884 88.9826L66.8637 87.5325L63.3884 86.1324L64.3135 84.4572L67.4138 86.6824L67.0137 82.8821H68.9139L68.4889 86.6824L71.5391 84.4822ZM93.0429 84.4822L93.943 86.1074L90.4676 87.5575L93.968 88.9826L93.0179 90.6578L89.9926 88.4576L90.3926 92.2329H88.5175L88.8925 88.4576L85.8672 90.6828L84.8921 88.9826L88.3675 87.5325L84.8921 86.1324L85.8172 84.4572L88.9175 86.6824L88.5175 82.8821H90.4176L89.9926 86.6824L93.0429 84.4822ZM106.542 84.4822L107.442 86.1074L103.966 87.5575L107.467 88.9826L106.517 90.6578L103.491 88.4576L103.891 92.2329H102.016L102.391 88.4576L99.3659 90.6828L98.3908 88.9826L101.866 87.5325L98.3908 86.1324L99.3159 84.4572L102.416 86.6824L102.016 82.8821H103.916L103.491 86.6824L106.542 84.4822ZM120.04 84.4822L120.94 86.1074L117.465 87.5575L120.965 88.9826L120.015 90.6578L116.99 88.4576L117.39 92.2329H115.515L115.89 88.4576L112.865 90.6828L111.89 88.9826L115.365 87.5325L111.89 86.1324L112.815 84.4572L115.915 86.6824L115.515 82.8821H117.415L116.99 86.6824L120.04 84.4822ZM133.539 84.4822L134.439 86.1074L130.964 87.5575L134.464 88.9826L133.514 90.6578L130.489 88.4576L130.889 92.2329H129.014L129.389 88.4576L126.363 90.6828L125.388 88.9826L128.864 87.5325L125.388 86.1324L126.313 84.4572L129.414 86.6824L129.014 82.8821H130.914L130.489 86.6824L133.539 84.4822ZM155.043 84.4822L155.943 86.1074L152.467 87.5575L155.968 88.9826L155.018 90.6578L151.992 88.4576L152.392 92.2329H150.517L150.892 88.4576L147.867 90.6828L146.892 88.9826L150.367 87.5325L146.892 86.1324L147.817 84.4572L150.917 86.6824L150.517 82.8821H152.417L151.992 86.6824L155.043 84.4822ZM168.541 84.4822L169.441 86.1074L165.966 87.5575L169.466 88.9826L168.516 90.6578L165.491 88.4576L165.891 92.2329H164.016L164.391 88.4576L161.366 90.6828L160.391 88.9826L163.866 87.5325L160.391 86.1324L161.316 84.4572L164.416 86.6824L164.016 82.8821H165.916L165.491 86.6824L168.541 84.4822ZM182.04 84.4822L182.94 86.1074L179.465 87.5575L182.965 88.9826L182.015 90.6578L178.99 88.4576L179.39 92.2329H177.515L177.89 88.4576L174.864 90.6828L173.889 88.9826L177.365 87.5325L173.889 86.1324L174.814 84.4572L177.915 86.6824L177.515 82.8821H179.415L178.99 86.6824L182.04 84.4822ZM195.539 84.4822L196.439 86.1074L192.964 87.5575L196.464 88.9826L195.514 90.6578L192.489 88.4576L192.889 92.2329H191.013L191.388 88.4576L188.363 90.6828L187.388 88.9826L190.863 87.5325L187.388 86.1324L188.313 84.4572L191.413 86.6824L191.013 82.8821H192.914L192.489 86.6824L195.539 84.4822ZM208.317 85.2323V83.1571H213.017V101.234H210.717V85.2323H208.317ZM217.99 99.4086C220.107 97.7084 221.765 96.3166 222.965 95.2332C224.165 94.1331 225.174 92.9913 225.99 91.8079C226.824 90.6078 227.241 89.4327 227.241 88.2826C227.241 87.1991 226.974 86.3491 226.44 85.7323C225.924 85.099 225.082 84.7823 223.915 84.7823C222.782 84.7823 221.898 85.1406 221.265 85.8574C220.648 86.5574 220.315 87.4992 220.265 88.6826H218.065C218.131 86.8158 218.698 85.374 219.765 84.3572C220.832 83.3405 222.207 82.8321 223.89 82.8321C225.607 82.8321 226.966 83.3071 227.966 84.2572C228.982 85.2073 229.491 86.5158 229.491 88.1826C229.491 89.566 229.074 90.9161 228.241 92.2329C227.424 93.533 226.49 94.6831 225.44 95.6832C224.39 96.6667 223.048 97.8168 221.415 99.1335H230.016V101.034H217.99V99.4086ZM237.286 91.8329C236.352 91.4662 235.635 90.9328 235.135 90.2328C234.635 89.5327 234.385 88.6826 234.385 87.6825C234.385 86.7824 234.61 85.974 235.06 85.2573C235.51 84.5239 236.177 83.9489 237.061 83.5322C237.961 83.0988 239.044 82.8821 240.311 82.8821C241.578 82.8821 242.653 83.0988 243.536 83.5322C244.436 83.9489 245.111 84.5239 245.561 85.2573C246.028 85.974 246.261 86.7824 246.261 87.6825C246.261 88.6493 246.003 89.4994 245.486 90.2328C244.97 90.9495 244.261 91.4829 243.361 91.8329C244.395 92.1496 245.211 92.708 245.811 93.508C246.428 94.2914 246.736 95.2415 246.736 96.3583C246.736 97.4417 246.47 98.3918 245.936 99.2086C245.403 100.009 244.645 100.634 243.661 101.084C242.694 101.517 241.578 101.734 240.311 101.734C239.044 101.734 237.927 101.517 236.961 101.084C236.01 100.634 235.269 100.009 234.735 99.2086C234.202 98.3918 233.935 97.4417 233.935 96.3583C233.935 95.2415 234.235 94.2831 234.835 93.483C235.435 92.683 236.252 92.1329 237.286 91.8329ZM244.061 87.9575C244.061 86.9408 243.728 86.1574 243.061 85.6073C242.394 85.0573 241.478 84.7823 240.311 84.7823C239.161 84.7823 238.252 85.0573 237.586 85.6073C236.919 86.1574 236.586 86.9491 236.586 87.9825C236.586 88.916 236.927 89.666 237.611 90.2328C238.311 90.7995 239.211 91.0828 240.311 91.0828C241.428 91.0828 242.328 90.7995 243.011 90.2328C243.711 89.6494 244.061 88.891 244.061 87.9575ZM240.311 92.833C239.077 92.833 238.069 93.1247 237.286 93.7081C236.502 94.2748 236.11 95.1332 236.11 96.2833C236.11 97.3501 236.486 98.2085 237.236 98.8585C238.002 99.5086 239.027 99.8336 240.311 99.8336C241.594 99.8336 242.611 99.5086 243.361 98.8585C244.111 98.2085 244.486 97.3501 244.486 96.2833C244.486 95.1665 244.103 94.3164 243.336 93.7331C242.569 93.133 241.561 92.833 240.311 92.833ZM254.023 96.3833C254.19 97.3334 254.573 98.0668 255.173 98.5835C255.79 99.1002 256.615 99.3586 257.648 99.3586C259.032 99.3586 260.048 98.8169 260.698 97.7334C261.365 96.65 261.682 94.8248 261.649 92.2579C261.299 93.008 260.715 93.5997 259.898 94.0331C259.082 94.4498 258.173 94.6581 257.173 94.6581C256.056 94.6581 255.056 94.4331 254.173 93.9831C253.306 93.5164 252.623 92.8413 252.123 91.9579C251.623 91.0745 251.373 90.0077 251.373 88.7576C251.373 86.9741 251.889 85.5407 252.923 84.4572C253.956 83.3571 255.423 82.8071 257.323 82.8071C259.657 82.8071 261.29 83.5655 262.224 85.0823C263.174 86.5991 263.649 88.8576 263.649 91.8579C263.649 93.9581 263.457 95.6916 263.074 97.0584C262.707 98.4251 262.074 99.4669 261.173 100.184C260.29 100.9 259.073 101.259 257.523 101.259C255.823 101.259 254.498 100.8 253.548 99.8836C252.598 98.9669 252.056 97.8001 251.923 96.3833H254.023ZM257.548 92.733C258.665 92.733 259.582 92.3913 260.298 91.7079C261.015 91.0078 261.374 90.0661 261.374 88.8826C261.374 87.6325 261.023 86.6241 260.323 85.8574C259.623 85.0906 258.64 84.7073 257.373 84.7073C256.206 84.7073 255.273 85.074 254.573 85.8074C253.89 86.5408 253.548 87.5075 253.548 88.7076C253.548 89.9244 253.89 90.8995 254.573 91.6329C255.256 92.3663 256.248 92.733 257.548 92.733Z" fill="white"/>
<path d="M252.929 171.832C252.929 169.978 253.24 168.532 253.862 167.493C254.494 166.442 255.576 165.917 257.108 165.917C258.641 165.917 259.718 166.442 260.339 167.493C260.971 168.532 261.287 169.978 261.287 171.832C261.287 173.707 260.971 175.175 260.339 176.236C259.718 177.286 258.641 177.811 257.108 177.811C255.576 177.811 254.494 177.286 253.862 176.236C253.24 175.175 252.929 173.707 252.929 171.832ZM259.487 171.832C259.487 170.964 259.428 170.23 259.31 169.63C259.203 169.03 258.978 168.543 258.635 168.168C258.292 167.782 257.783 167.589 257.108 167.589C256.433 167.589 255.924 167.782 255.581 168.168C255.239 168.543 255.008 169.03 254.89 169.63C254.783 170.23 254.73 170.964 254.73 171.832C254.73 172.732 254.783 173.488 254.89 174.098C254.998 174.709 255.223 175.202 255.565 175.577C255.919 175.952 256.433 176.14 257.108 176.14C257.783 176.14 258.292 175.952 258.635 175.577C258.989 175.202 259.219 174.709 259.326 174.098C259.434 173.488 259.487 172.732 259.487 171.832ZM265.578 175.352C266.607 174.463 267.416 173.734 268.005 173.166C268.605 172.588 269.103 171.988 269.5 171.366C269.896 170.745 270.095 170.123 270.095 169.502C270.095 168.859 269.939 168.355 269.628 167.991C269.328 167.626 268.852 167.444 268.198 167.444C267.566 167.444 267.073 167.648 266.719 168.055C266.376 168.452 266.194 168.987 266.173 169.662H264.405C264.437 168.441 264.801 167.509 265.498 166.866C266.205 166.212 267.1 165.885 268.182 165.885C269.35 165.885 270.261 166.207 270.914 166.85C271.579 167.493 271.911 168.35 271.911 169.421C271.911 170.193 271.713 170.938 271.316 171.655C270.93 172.363 270.464 173 269.918 173.568C269.382 174.125 268.696 174.774 267.86 175.513L267.137 176.156H272.232V177.683H264.421V176.349L265.578 175.352ZM281.369 162.671L276.998 180.656H275.197L279.553 162.671H281.369ZM285.79 175.352C286.818 174.463 287.627 173.734 288.217 173.166C288.817 172.588 289.315 171.988 289.711 171.366C290.108 170.745 290.306 170.123 290.306 169.502C290.306 168.859 290.151 168.355 289.84 167.991C289.54 167.626 289.063 167.444 288.409 167.444C287.777 167.444 287.284 167.648 286.931 168.055C286.588 168.452 286.406 168.987 286.384 169.662H284.616C284.648 168.441 285.013 167.509 285.709 166.866C286.416 166.212 287.311 165.885 288.393 165.885C289.561 165.885 290.472 166.207 291.126 166.85C291.79 167.493 292.122 168.35 292.122 169.421C292.122 170.193 291.924 170.938 291.528 171.655C291.142 172.363 290.676 173 290.129 173.568C289.593 174.125 288.908 174.774 288.072 175.513L287.349 176.156H292.444V177.683H284.632V176.349L285.79 175.352ZM295.168 175.4V174.018L300.568 166.271H302.786V173.809H304.281V175.4H302.786V177.843H300.986V175.4H295.168ZM301.067 168.135L297.273 173.809H301.067V168.135Z" fill="#F0EBFE"/>
<path d="M24.4047 168.147V171.426H28.2622V172.921H24.4047V176.345H28.7444V177.839H22.5724V166.653H28.7444V168.147H24.4047ZM34.173 176.361H37.9501V177.839H32.3406V166.669H34.173V176.361ZM42.6541 166.669V177.839H40.8218V166.669H42.6541ZM53.1337 175.557H48.4565L47.6529 177.839H45.7402L49.7423 166.653H51.8639L55.8661 177.839H53.9373L53.1337 175.557ZM52.6194 174.062L50.8031 168.871L48.9708 174.062H52.6194ZM68.1232 177.839H66.2909L60.7779 169.498V177.839H58.9456V166.653H60.7779L66.2909 174.978V166.653H68.1232V177.839ZM78.6033 175.557H73.9261L73.1225 177.839H71.2098L75.212 166.653H77.3336L81.3357 177.839H79.407L78.6033 175.557ZM78.089 174.062L76.2728 168.871L74.4405 174.062H78.089ZM96.0215 166.669V174.721C96.0215 175.718 95.7161 176.505 95.1053 177.084C94.5053 177.663 93.7123 177.952 92.7265 177.952C91.7407 177.952 90.9424 177.663 90.3317 177.084C89.7316 176.505 89.4316 175.718 89.4316 174.721H91.28C91.2907 175.214 91.4139 175.605 91.6496 175.895C91.8961 176.184 92.2551 176.329 92.7265 176.329C93.198 176.329 93.557 176.184 93.8034 175.895C94.0499 175.595 94.1731 175.203 94.1731 174.721V166.669H96.0215ZM105.437 177.952C104.397 177.952 103.438 177.711 102.56 177.229C101.692 176.736 101.001 176.055 100.486 175.187C99.9827 174.309 99.7309 173.323 99.7309 172.23C99.7309 171.137 99.9827 170.157 100.486 169.289C101.001 168.421 101.692 167.746 102.56 167.263C103.438 166.771 104.397 166.524 105.437 166.524C106.487 166.524 107.446 166.771 108.314 167.263C109.192 167.746 109.884 168.421 110.387 169.289C110.891 170.157 111.143 171.137 111.143 172.23C111.143 173.323 110.891 174.309 110.387 175.187C109.884 176.055 109.192 176.736 108.314 177.229C107.446 177.711 106.487 177.952 105.437 177.952ZM105.437 176.361C106.176 176.361 106.835 176.195 107.414 175.862C107.992 175.52 108.442 175.037 108.764 174.416C109.096 173.784 109.262 173.055 109.262 172.23C109.262 171.405 109.096 170.682 108.764 170.06C108.442 169.439 107.992 168.962 107.414 168.63C106.835 168.297 106.176 168.131 105.437 168.131C104.697 168.131 104.038 168.297 103.46 168.63C102.881 168.962 102.426 169.439 102.094 170.06C101.772 170.682 101.611 171.405 101.611 172.23C101.611 173.055 101.772 173.784 102.094 174.416C102.426 175.037 102.881 175.52 103.46 175.862C104.038 176.195 104.697 176.361 105.437 176.361ZM123.463 177.839H121.63L116.117 169.498V177.839H114.285V166.653H116.117L121.63 174.978V166.653H123.463V177.839ZM129.041 168.147V171.426H132.898V172.921H129.041V176.345H133.38V177.839H127.208V166.653H133.38V168.147H129.041ZM140.657 177.952C139.907 177.952 139.232 177.823 138.632 177.566C138.032 177.298 137.56 176.923 137.218 176.441C136.875 175.959 136.703 175.396 136.703 174.753H138.664C138.707 175.236 138.894 175.632 139.227 175.943C139.57 176.254 140.046 176.409 140.657 176.409C141.289 176.409 141.782 176.259 142.136 175.959C142.489 175.648 142.666 175.252 142.666 174.769C142.666 174.394 142.554 174.089 142.329 173.853C142.114 173.618 141.841 173.435 141.509 173.307C141.188 173.178 140.738 173.039 140.159 172.889C139.43 172.696 138.836 172.503 138.375 172.31C137.925 172.107 137.539 171.796 137.218 171.378C136.896 170.96 136.735 170.403 136.735 169.707C136.735 169.064 136.896 168.501 137.218 168.019C137.539 167.537 137.989 167.167 138.568 166.91C139.146 166.653 139.816 166.524 140.577 166.524C141.659 166.524 142.543 166.797 143.229 167.344C143.925 167.88 144.311 168.619 144.386 169.562H142.361C142.329 169.155 142.136 168.806 141.782 168.517C141.429 168.228 140.963 168.083 140.384 168.083C139.859 168.083 139.43 168.217 139.098 168.485C138.766 168.753 138.6 169.139 138.6 169.642C138.6 169.985 138.702 170.269 138.905 170.494C139.12 170.708 139.387 170.88 139.709 171.008C140.03 171.137 140.47 171.276 141.027 171.426C141.766 171.63 142.366 171.834 142.827 172.037C143.298 172.241 143.695 172.557 144.016 172.985C144.349 173.403 144.515 173.966 144.515 174.673C144.515 175.241 144.359 175.777 144.049 176.28C143.748 176.784 143.304 177.191 142.714 177.502C142.136 177.802 141.45 177.952 140.657 177.952Z" fill="#F0EBFE"/>
<path opacity="0.7" d="M21.7634 148.458C21.7634 147.729 21.9313 147.076 22.267 146.497C22.6099 145.918 23.0707 145.468 23.6493 145.147C24.2351 144.818 24.8744 144.654 25.5673 144.654C26.3602 144.654 27.0639 144.85 27.6782 145.243C28.2997 145.629 28.7497 146.179 29.0283 146.893H27.5604C27.3675 146.501 27.0996 146.208 26.7567 146.015C26.4138 145.822 26.0174 145.725 25.5673 145.725C25.0744 145.725 24.6351 145.836 24.2493 146.058C23.8636 146.279 23.56 146.597 23.3385 147.011C23.1242 147.426 23.0171 147.908 23.0171 148.458C23.0171 149.008 23.1242 149.49 23.3385 149.904C23.56 150.319 23.8636 150.64 24.2493 150.869C24.6351 151.09 25.0744 151.201 25.5673 151.201C26.0174 151.201 26.4138 151.105 26.7567 150.912C27.0996 150.719 27.3675 150.426 27.5604 150.033H29.0283C28.7497 150.747 28.2997 151.297 27.6782 151.683C27.0639 152.069 26.3602 152.262 25.5673 152.262C24.8673 152.262 24.2279 152.101 23.6493 151.78C23.0707 151.451 22.6099 150.997 22.267 150.419C21.9313 149.84 21.7634 149.186 21.7634 148.458ZM30.051 149.219C30.051 148.626 30.1724 148.101 30.4153 147.644C30.6653 147.186 31.0011 146.833 31.4225 146.583C31.8511 146.326 32.3226 146.197 32.8369 146.197C33.3013 146.197 33.7049 146.29 34.0478 146.476C34.3978 146.654 34.6764 146.879 34.8836 147.151V146.293H36.1158V152.197H34.8836V151.319C34.6764 151.597 34.3942 151.83 34.037 152.015C33.6799 152.201 33.2727 152.294 32.8155 152.294C32.3083 152.294 31.844 152.165 31.4225 151.908C31.0011 151.644 30.6653 151.28 30.4153 150.815C30.1724 150.344 30.051 149.812 30.051 149.219ZM34.8836 149.24C34.8836 148.833 34.7978 148.479 34.6264 148.179C34.4621 147.879 34.2442 147.651 33.9728 147.493C33.7013 147.336 33.4084 147.258 33.0941 147.258C32.7798 147.258 32.4869 147.336 32.2155 147.493C31.944 147.644 31.7226 147.869 31.5511 148.169C31.3868 148.461 31.3047 148.811 31.3047 149.219C31.3047 149.626 31.3868 149.983 31.5511 150.29C31.7226 150.597 31.944 150.833 32.2155 150.997C32.4941 151.155 32.7869 151.233 33.0941 151.233C33.4084 151.233 33.7013 151.155 33.9728 150.997C34.2442 150.84 34.4621 150.612 34.6264 150.312C34.7978 150.004 34.8836 149.647 34.8836 149.24ZM38.9418 147.151C39.1204 146.851 39.3561 146.618 39.649 146.454C39.949 146.283 40.3026 146.197 40.7098 146.197V147.461H40.3991C39.9204 147.461 39.5561 147.583 39.3061 147.826C39.0632 148.069 38.9418 148.49 38.9418 149.09V152.197H37.7202V146.293H38.9418V147.151ZM41.4255 149.219C41.4255 148.626 41.5469 148.101 41.7898 147.644C42.0398 147.186 42.3755 146.833 42.797 146.583C43.2256 146.326 43.7007 146.197 44.2221 146.197C44.6079 146.197 44.9865 146.283 45.358 146.454C45.7366 146.618 46.0366 146.84 46.258 147.118V144.268H47.4903V152.197H46.258V151.308C46.058 151.594 45.7794 151.83 45.4222 152.015C45.0722 152.201 44.6686 152.294 44.2114 152.294C43.6971 152.294 43.2256 152.165 42.797 151.908C42.3755 151.644 42.0398 151.28 41.7898 150.815C41.5469 150.344 41.4255 149.812 41.4255 149.219ZM46.258 149.24C46.258 148.833 46.1723 148.479 46.0009 148.179C45.8366 147.879 45.6187 147.651 45.3472 147.493C45.0758 147.336 44.7829 147.258 44.4686 147.258C44.1543 147.258 43.8614 147.336 43.5899 147.493C43.3185 147.644 43.097 147.869 42.9256 148.169C42.7613 148.461 42.6791 148.811 42.6791 149.219C42.6791 149.626 42.7613 149.983 42.9256 150.29C43.097 150.597 43.3185 150.833 43.5899 150.997C43.8685 151.155 44.1614 151.233 44.4686 151.233C44.7829 151.233 45.0758 151.155 45.3472 150.997C45.6187 150.84 45.8366 150.612 46.0009 150.312C46.1723 150.004 46.258 149.647 46.258 149.24ZM57.8251 144.75V152.197H56.6036V148.94H53.0997V152.197H51.8782V144.75H53.0997V147.944H56.6036V144.75H57.8251ZM61.9942 152.294C61.437 152.294 60.9334 152.169 60.4834 151.919C60.0333 151.662 59.6797 151.305 59.4225 150.847C59.1654 150.383 59.0368 149.847 59.0368 149.24C59.0368 148.64 59.169 148.108 59.4333 147.644C59.6976 147.179 60.0583 146.822 60.5155 146.572C60.9727 146.322 61.4834 146.197 62.0478 146.197C62.6121 146.197 63.1229 146.322 63.5801 146.572C64.0372 146.822 64.398 147.179 64.6623 147.644C64.9266 148.108 65.0588 148.64 65.0588 149.24C65.0588 149.84 64.923 150.372 64.6516 150.837C64.3801 151.301 64.0087 151.662 63.5372 151.919C63.0729 152.169 62.5585 152.294 61.9942 152.294ZM61.9942 151.233C62.3085 151.233 62.6014 151.158 62.8729 151.008C63.1515 150.858 63.3765 150.633 63.5479 150.333C63.7194 150.033 63.8051 149.669 63.8051 149.24C63.8051 148.811 63.7229 148.451 63.5586 148.158C63.3943 147.858 63.1765 147.633 62.905 147.483C62.6335 147.333 62.3407 147.258 62.0264 147.258C61.712 147.258 61.4192 147.333 61.1477 147.483C60.8834 147.633 60.6727 147.858 60.5155 148.158C60.3583 148.451 60.2798 148.811 60.2798 149.24C60.2798 149.876 60.4405 150.369 60.762 150.719C61.0906 151.062 61.5013 151.233 61.9942 151.233ZM67.4879 144.268V152.197H66.2663V144.268H67.4879ZM68.6845 149.219C68.6845 148.626 68.8059 148.101 69.0488 147.644C69.2988 147.186 69.6345 146.833 70.056 146.583C70.4846 146.326 70.9597 146.197 71.4811 146.197C71.8669 146.197 72.2455 146.283 72.6169 146.454C72.9956 146.618 73.2956 146.84 73.517 147.118V144.268H74.7493V152.197H73.517V151.308C73.317 151.594 73.0384 151.83 72.6812 152.015C72.3312 152.201 71.9276 152.294 71.4704 152.294C70.9561 152.294 70.4846 152.165 70.056 151.908C69.6345 151.644 69.2988 151.28 69.0488 150.815C68.8059 150.344 68.6845 149.812 68.6845 149.219ZM73.517 149.24C73.517 148.833 73.4313 148.479 73.2599 148.179C73.0956 147.879 72.8777 147.651 72.6062 147.493C72.3348 147.336 72.0419 147.258 71.7276 147.258C71.4133 147.258 71.1204 147.336 70.8489 147.493C70.5775 147.644 70.356 147.869 70.1846 148.169C70.0203 148.461 69.9381 148.811 69.9381 149.219C69.9381 149.626 70.0203 149.983 70.1846 150.29C70.356 150.597 70.5775 150.833 70.8489 150.997C71.1275 151.155 71.4204 151.233 71.7276 151.233C72.0419 151.233 72.3348 151.155 72.6062 150.997C72.8777 150.84 73.0956 150.612 73.2599 150.312C73.4313 150.004 73.517 149.647 73.517 149.24ZM81.7649 149.101C81.7649 149.322 81.7506 149.522 81.7221 149.701H77.2109C77.2467 150.172 77.4217 150.551 77.736 150.837C78.0503 151.122 78.4361 151.265 78.8932 151.265C79.5504 151.265 80.0148 150.99 80.2862 150.44H81.6042C81.4256 150.983 81.1006 151.43 80.6291 151.78C80.1648 152.122 79.5862 152.294 78.8932 152.294C78.3289 152.294 77.8217 152.169 77.3717 151.919C76.9288 151.662 76.5787 151.305 76.3216 150.847C76.0716 150.383 75.9465 149.847 75.9465 149.24C75.9465 148.633 76.068 148.101 76.3109 147.644C76.5609 147.179 76.9073 146.822 77.3502 146.572C77.8003 146.322 78.3146 146.197 78.8932 146.197C79.4504 146.197 79.9469 146.318 80.3827 146.561C80.8184 146.804 81.1577 147.147 81.4006 147.59C81.6435 148.026 81.7649 148.529 81.7649 149.101ZM80.4898 148.715C80.4827 148.265 80.3219 147.904 80.0076 147.633C79.6933 147.361 79.304 147.226 78.8397 147.226C78.4182 147.226 78.0574 147.361 77.7574 147.633C77.4574 147.897 77.2788 148.258 77.2217 148.715H80.4898ZM84.1886 147.151C84.3672 146.851 84.6029 146.618 84.8958 146.454C85.1958 146.283 85.5494 146.197 85.9566 146.197V147.461H85.6458C85.1672 147.461 84.8029 147.583 84.5529 147.826C84.31 148.069 84.1886 148.49 84.1886 149.09V152.197H82.967V146.293H84.1886V147.151ZM95.9813 152.197H94.7597L91.0844 146.636V152.197H89.8629V144.74H91.0844L94.7597 150.29V144.74H95.9813V152.197ZM97.1782 149.219C97.1782 148.626 97.2996 148.101 97.5425 147.644C97.7926 147.186 98.1283 146.833 98.5498 146.583C98.9784 146.326 99.4498 146.197 99.9642 146.197C100.429 146.197 100.832 146.29 101.175 146.476C101.525 146.654 101.804 146.879 102.011 147.151V146.293H103.243V152.197H102.011V151.319C101.804 151.597 101.521 151.83 101.164 152.015C100.807 152.201 100.4 152.294 99.9427 152.294C99.4356 152.294 98.9712 152.165 98.5498 151.908C98.1283 151.644 97.7926 151.28 97.5425 150.815C97.2996 150.344 97.1782 149.812 97.1782 149.219ZM102.011 149.24C102.011 148.833 101.925 148.479 101.754 148.179C101.589 147.879 101.371 147.651 101.1 147.493C100.829 147.336 100.536 147.258 100.221 147.258C99.907 147.258 99.6141 147.336 99.3427 147.493C99.0712 147.644 98.8498 147.869 98.6783 148.169C98.514 148.461 98.4319 148.811 98.4319 149.219C98.4319 149.626 98.514 149.983 98.6783 150.29C98.8498 150.597 99.0712 150.833 99.3427 150.997C99.6213 151.155 99.9142 151.233 100.221 151.233C100.536 151.233 100.829 151.155 101.1 150.997C101.371 150.84 101.589 150.612 101.754 150.312C101.925 150.004 102.011 149.647 102.011 149.24ZM111.995 146.197C112.459 146.197 112.873 146.293 113.238 146.486C113.609 146.679 113.898 146.965 114.105 147.343C114.32 147.722 114.427 148.179 114.427 148.715V152.197H113.216V148.897C113.216 148.369 113.084 147.965 112.82 147.686C112.555 147.401 112.195 147.258 111.737 147.258C111.28 147.258 110.916 147.401 110.644 147.686C110.38 147.965 110.248 148.369 110.248 148.897V152.197H109.037V148.897C109.037 148.369 108.905 147.965 108.641 147.686C108.376 147.401 108.016 147.258 107.558 147.258C107.101 147.258 106.737 147.401 106.465 147.686C106.201 147.965 106.069 148.369 106.069 148.897V152.197H104.847V146.293H106.069V146.968C106.269 146.726 106.523 146.536 106.83 146.401C107.137 146.265 107.466 146.197 107.816 146.197C108.287 146.197 108.709 146.297 109.08 146.497C109.451 146.697 109.737 146.986 109.937 147.365C110.116 147.008 110.394 146.726 110.773 146.518C111.152 146.304 111.559 146.197 111.995 146.197ZM121.392 149.101C121.392 149.322 121.378 149.522 121.35 149.701H116.839C116.874 150.172 117.049 150.551 117.364 150.837C117.678 151.122 118.064 151.265 118.521 151.265C119.178 151.265 119.642 150.99 119.914 150.44H121.232C121.053 150.983 120.728 151.43 120.257 151.78C119.792 152.122 119.214 152.294 118.521 152.294C117.956 152.294 117.449 152.169 116.999 151.919C116.556 151.662 116.206 151.305 115.949 150.847C115.699 150.383 115.574 149.847 115.574 149.24C115.574 148.633 115.696 148.101 115.938 147.644C116.188 147.179 116.535 146.822 116.978 146.572C117.428 146.322 117.942 146.197 118.521 146.197C119.078 146.197 119.574 146.318 120.01 146.561C120.446 146.804 120.785 147.147 121.028 147.59C121.271 148.026 121.392 148.529 121.392 149.101ZM120.117 148.715C120.11 148.265 119.949 147.904 119.635 147.633C119.321 147.361 118.932 147.226 118.467 147.226C118.046 147.226 117.685 147.361 117.385 147.633C117.085 147.897 116.906 148.258 116.849 148.715H120.117Z" fill="white"/>
<path opacity="0.7" d="M253.99 145.732V147.918H256.562V148.915H253.99V151.197H256.883V152.194H252.769V144.736H256.883V145.732H253.99ZM260.917 149.204L262.824 152.194H261.442L260.167 150.19L258.967 152.194H257.691L259.599 149.29L257.691 146.29H259.074L260.349 148.293L261.549 146.29H262.824L260.917 149.204ZM264.957 147.157C265.164 146.886 265.446 146.657 265.803 146.472C266.16 146.286 266.564 146.193 267.014 146.193C267.528 146.193 267.996 146.322 268.418 146.579C268.846 146.829 269.182 147.183 269.425 147.64C269.668 148.097 269.789 148.622 269.789 149.215C269.789 149.808 269.668 150.34 269.425 150.811C269.182 151.276 268.846 151.64 268.418 151.904C267.996 152.162 267.528 152.29 267.014 152.29C266.564 152.29 266.164 152.201 265.814 152.022C265.464 151.836 265.178 151.608 264.957 151.336V155.001H263.735V146.29H264.957V147.157ZM268.546 149.215C268.546 148.808 268.461 148.458 268.289 148.165C268.125 147.865 267.903 147.64 267.625 147.49C267.353 147.333 267.06 147.254 266.746 147.254C266.439 147.254 266.146 147.333 265.867 147.49C265.596 147.647 265.375 147.875 265.203 148.175C265.039 148.475 264.957 148.829 264.957 149.236C264.957 149.643 265.039 150.001 265.203 150.308C265.375 150.608 265.596 150.836 265.867 150.994C266.146 151.151 266.439 151.229 266.746 151.229C267.06 151.229 267.353 151.151 267.625 150.994C267.903 150.829 268.125 150.594 268.289 150.286C268.461 149.979 268.546 149.622 268.546 149.215ZM271.619 145.507C271.397 145.507 271.212 145.432 271.061 145.282C270.911 145.132 270.836 144.947 270.836 144.725C270.836 144.504 270.911 144.318 271.061 144.168C271.212 144.018 271.397 143.943 271.619 143.943C271.833 143.943 272.015 144.018 272.165 144.168C272.315 144.318 272.39 144.504 272.39 144.725C272.39 144.947 272.315 145.132 272.165 145.282C272.015 145.432 271.833 145.507 271.619 145.507ZM272.219 146.29V152.194H270.997V146.29H272.219ZM275.044 147.147C275.223 146.847 275.458 146.615 275.751 146.45C276.051 146.279 276.405 146.193 276.812 146.193V147.458H276.501C276.023 147.458 275.658 147.579 275.408 147.822C275.165 148.065 275.044 148.486 275.044 149.086V152.194H273.823V146.29H275.044V147.147ZM283.25 146.29L279.628 154.969H278.364L279.564 152.097L277.238 146.29H278.599L280.26 150.79L281.985 146.29H283.25ZM289.387 144.747C290.18 144.747 290.873 144.9 291.466 145.207C292.066 145.507 292.527 145.943 292.848 146.515C293.177 147.079 293.341 147.74 293.341 148.497C293.341 149.254 293.177 149.911 292.848 150.469C292.527 151.026 292.066 151.454 291.466 151.754C290.873 152.047 290.18 152.194 289.387 152.194H286.955V144.747H289.387ZM289.387 151.197C290.259 151.197 290.927 150.961 291.391 150.49C291.855 150.018 292.088 149.354 292.088 148.497C292.088 147.633 291.855 146.957 291.391 146.472C290.927 145.986 290.259 145.743 289.387 145.743H288.176V151.197H289.387ZM294.145 149.215C294.145 148.622 294.266 148.097 294.509 147.64C294.759 147.183 295.095 146.829 295.516 146.579C295.945 146.322 296.416 146.193 296.931 146.193C297.395 146.193 297.799 146.286 298.142 146.472C298.492 146.65 298.77 146.875 298.977 147.147V146.29H300.21V152.194H298.977V151.315C298.77 151.594 298.488 151.826 298.131 152.012C297.774 152.197 297.366 152.29 296.909 152.29C296.402 152.29 295.938 152.162 295.516 151.904C295.095 151.64 294.759 151.276 294.509 150.811C294.266 150.34 294.145 149.808 294.145 149.215ZM298.977 149.236C298.977 148.829 298.892 148.475 298.72 148.175C298.556 147.875 298.338 147.647 298.067 147.49C297.795 147.333 297.502 147.254 297.188 147.254C296.874 147.254 296.581 147.333 296.309 147.49C296.038 147.64 295.816 147.865 295.645 148.165C295.481 148.458 295.398 148.808 295.398 149.215C295.398 149.622 295.481 149.979 295.645 150.286C295.816 150.594 296.038 150.829 296.309 150.994C296.588 151.151 296.881 151.229 297.188 151.229C297.502 151.229 297.795 151.151 298.067 150.994C298.338 150.836 298.556 150.608 298.72 150.308C298.892 150.001 298.977 149.643 298.977 149.236ZM303.239 147.286V150.554C303.239 150.776 303.289 150.936 303.389 151.036C303.496 151.129 303.675 151.176 303.925 151.176H304.675V152.194H303.711C303.161 152.194 302.739 152.065 302.446 151.808C302.153 151.551 302.007 151.133 302.007 150.554V147.286H301.31V146.29H302.007V144.822H303.239V146.29H304.675V147.286H303.239ZM311.212 149.097C311.212 149.318 311.198 149.518 311.169 149.697H306.658C306.694 150.168 306.869 150.547 307.183 150.833C307.497 151.119 307.883 151.261 308.34 151.261C308.998 151.261 309.462 150.986 309.733 150.436H311.051C310.873 150.979 310.548 151.426 310.076 151.776C309.612 152.119 309.033 152.29 308.34 152.29C307.776 152.29 307.269 152.165 306.819 151.915C306.376 151.658 306.026 151.301 305.769 150.844C305.519 150.379 305.394 149.843 305.394 149.236C305.394 148.629 305.515 148.097 305.758 147.64C306.008 147.175 306.354 146.818 306.797 146.568C307.247 146.318 307.762 146.193 308.34 146.193C308.898 146.193 309.394 146.315 309.83 146.557C310.265 146.8 310.605 147.143 310.848 147.586C311.091 148.022 311.212 148.525 311.212 149.097ZM309.937 148.711C309.93 148.261 309.769 147.9 309.455 147.629C309.14 147.358 308.751 147.222 308.287 147.222C307.865 147.222 307.505 147.358 307.205 147.629C306.904 147.893 306.726 148.254 306.669 148.711H309.937Z" fill="white"/>
<path d="M288.204 19.3456H301.204V43.2605H288.204V19.3456Z" fill="#FF5F00"/>
<path d="M279.415 55.3049V52.7699C279.415 51.7979 278.837 51.1643 277.846 51.1643C277.351 51.1643 276.814 51.3333 276.443 51.8826C276.154 51.4178 275.741 51.1643 275.122 51.1643C274.71 51.1643 274.297 51.2909 273.967 51.7557V51.2488H273.1V55.3049H273.967V53.0655C273.967 52.3474 274.338 52.0092 274.916 52.0092C275.494 52.0092 275.783 52.3895 275.783 53.0655V55.3049H276.649V53.0655C276.649 52.3474 277.062 52.0092 277.598 52.0092C278.176 52.0092 278.465 52.3895 278.465 53.0655V55.3049H279.415ZM292.249 51.2488H290.846V50.0235H289.98V51.2488H289.195V52.0514H289.979V53.9107C289.979 54.8403 290.351 55.3894 291.341 55.3894C291.713 55.3894 292.125 55.2628 292.414 55.0938L292.167 54.3331C291.919 54.5021 291.63 54.5445 291.424 54.5445C291.011 54.5445 290.846 54.291 290.846 53.8683V52.0514H292.249V51.2488ZM299.595 51.1641C299.1 51.1641 298.77 51.4178 298.564 51.7557V51.2488H297.697V55.3049H298.564V53.0234C298.564 52.3474 298.852 51.9671 299.389 51.9671C299.554 51.9671 299.76 52.0094 299.926 52.0516L300.173 51.2066C300.008 51.1643 299.76 51.1643 299.595 51.1643V51.1641ZM288.494 51.5867C288.081 51.2909 287.503 51.1643 286.884 51.1643C285.894 51.1643 285.234 51.6712 285.234 52.474C285.234 53.1502 285.729 53.5303 286.595 53.6572L287.008 53.6995C287.462 53.7838 287.71 53.9107 287.71 54.122C287.71 54.4176 287.38 54.629 286.802 54.629C286.224 54.629 285.77 54.4176 285.481 54.2065L285.068 54.8824C285.522 55.2204 286.141 55.3894 286.76 55.3894C287.916 55.3894 288.576 54.8403 288.576 54.0796C288.576 53.3613 288.04 52.981 287.214 52.8544L286.802 52.812C286.43 52.7697 286.141 52.6854 286.141 52.4319C286.141 52.1361 286.43 51.9671 286.884 51.9671C287.38 51.9671 287.875 52.1782 288.122 52.305L288.494 51.5867ZM311.522 51.1643C311.027 51.1643 310.697 51.4178 310.491 51.7557V51.2488H309.624V55.3049H310.491V53.0234C310.491 52.3474 310.779 51.9671 311.316 51.9671C311.481 51.9671 311.688 52.0094 311.853 52.0516L312.1 51.2066C311.935 51.1643 311.688 51.1643 311.522 51.1643ZM300.462 53.2768C300.462 54.5021 301.287 55.3894 302.567 55.3894C303.145 55.3894 303.557 55.2628 303.97 54.9248L303.557 54.2065C303.227 54.46 302.897 54.5866 302.526 54.5866C301.824 54.5866 301.329 54.0796 301.329 53.2768C301.329 52.5164 301.824 52.0092 302.526 51.9671C302.897 51.9671 303.227 52.0937 303.557 52.3474L303.97 51.6291C303.557 51.2909 303.145 51.1643 302.567 51.1643C301.287 51.1643 300.462 52.0516 300.462 53.2768ZM308.468 53.2768V51.2488H307.602V51.7557C307.313 51.3756 306.9 51.1643 306.364 51.1643C305.249 51.1643 304.383 52.0516 304.383 53.2768C304.383 54.5021 305.249 55.3894 306.364 55.3894C306.941 55.3894 307.354 55.1783 307.602 54.798V55.3049H308.468V53.2768ZM305.291 53.2768C305.291 52.5585 305.745 51.9671 306.487 51.9671C307.189 51.9671 307.684 52.5164 307.684 53.2768C307.684 53.9951 307.189 54.5866 306.487 54.5866C305.745 54.5443 305.291 53.9951 305.291 53.2768ZM294.932 51.1643C293.776 51.1643 292.951 52.0092 292.951 53.2768C292.951 54.5445 293.776 55.3894 294.973 55.3894C295.551 55.3894 296.129 55.2204 296.583 54.8403L296.17 54.2065C295.84 54.46 295.427 54.629 295.014 54.629C294.478 54.629 293.941 54.3755 293.818 53.657H296.748V53.3192C296.789 52.0092 296.046 51.1643 294.932 51.1643H294.932ZM294.932 51.9247C295.468 51.9247 295.84 52.2629 295.922 52.8967H293.859C293.941 52.3474 294.313 51.9247 294.932 51.9247ZM316.433 53.2768V49.6432H315.567V51.7557C315.278 51.3756 314.865 51.1643 314.329 51.1643C313.214 51.1643 312.348 52.0516 312.348 53.2768C312.348 54.5021 313.214 55.3894 314.329 55.3894C314.907 55.3894 315.319 55.1783 315.567 54.798V55.3049H316.433V53.2768ZM313.256 53.2768C313.256 52.5585 313.71 51.9671 314.453 51.9671C315.154 51.9671 315.649 52.5164 315.649 53.2768C315.649 53.9951 315.154 54.5866 314.453 54.5866C313.71 54.5443 313.256 53.9951 313.256 53.2768ZM284.284 53.2768V51.2488H283.418V51.7557C283.129 51.3756 282.716 51.1643 282.179 51.1643C281.065 51.1643 280.198 52.0516 280.198 53.2768C280.198 54.5021 281.065 55.3894 282.179 55.3894C282.757 55.3894 283.17 55.1783 283.418 54.798V55.3049H284.284V53.2768ZM281.065 53.2768C281.065 52.5585 281.519 51.9671 282.262 51.9671C282.964 51.9671 283.459 52.5164 283.459 53.2768C283.459 53.9951 282.964 54.5866 282.262 54.5866C281.519 54.5443 281.065 53.9951 281.065 53.2768Z" fill="white"/>
<path d="M289.03 31.305C289.03 26.446 291.258 22.1362 294.684 19.3475C292.166 17.3194 288.989 16.0941 285.522 16.0941C277.309 16.0941 270.665 22.8967 270.665 31.305C270.665 39.7132 277.309 46.5159 285.522 46.5159C288.988 46.5159 292.166 45.2906 294.684 43.2623C291.258 40.516 289.03 36.164 289.03 31.305Z" fill="#EB001B"/>
<path d="M318.743 31.305C318.743 39.7132 312.099 46.5159 303.886 46.5159C300.42 46.5159 297.242 45.2906 294.724 43.2623C298.191 40.4738 300.378 36.164 300.378 31.305C300.378 26.446 298.15 22.1362 294.724 19.3475C297.242 17.3194 300.42 16.0941 303.886 16.0941C312.099 16.0941 318.744 22.939 318.744 31.305H318.743Z" fill="#F79E1B"/>
<path d="M52.4695 26.9457L52.4791 44.2316C52.4791 46.271 50.8193 47.9413 48.8024 47.9413L25.082 47.9607C23.0458 47.9607 21.386 46.2904 21.386 44.2607L21.3667 26.9748C21.3667 24.9258 23.0265 23.2651 25.0531 23.2651L48.7831 23.2457C50.8096 23.2457 52.4695 24.8966 52.4695 26.9457Z" fill="#F6C859"/>
<path d="M33.3601 44.6823C33.2249 44.6823 33.0995 44.6143 33.0416 44.488C32.9547 44.3132 33.0223 44.0899 33.196 44.0025C33.7171 43.7306 34.4216 43.2256 34.8365 42.3613C35.3577 41.2542 35.2225 40.05 35.0006 39.9432C34.9427 39.9141 34.7304 40.0306 34.5953 40.0986C34.2575 40.2734 33.7847 40.5162 33.2442 40.3219C32.7135 40.1374 32.4529 39.6616 32.3275 39.4285C31.5072 37.9233 31.2563 34.0194 32.1152 32.0771C32.4047 31.4362 32.7907 31.0477 33.2732 30.9312C33.7654 30.8147 34.1707 31.0186 34.4891 31.1934C34.7497 31.3294 34.8848 31.3876 34.9716 31.3391C35.3094 31.1352 35.2998 29.8921 34.8269 28.9113C34.4119 28.0373 33.7075 27.5323 33.1863 27.2701C33.0126 27.1827 32.9354 26.9593 33.0319 26.7845C33.1188 26.6097 33.3407 26.532 33.5145 26.6292C34.1321 26.9496 34.9813 27.5517 35.4735 28.6102C35.9656 29.6493 36.1972 31.4459 35.3384 31.9703C34.9041 32.2325 34.4891 32.0189 34.161 31.8538C33.9101 31.7275 33.6689 31.6013 33.4373 31.6596C33.1188 31.7372 32.9065 32.0966 32.7714 32.3879C32.0187 34.0874 32.2406 37.7776 32.9547 39.0983C33.0802 39.3217 33.2249 39.5645 33.4759 39.6519C33.7171 39.7393 33.9487 39.6324 34.2672 39.4674C34.5856 39.3023 34.933 39.1275 35.3094 39.3023C36.12 39.7004 36.0621 41.4387 35.4831 42.6818C34.9813 43.7403 34.1417 44.3424 33.5241 44.6628C33.4662 44.6725 33.4083 44.6823 33.3601 44.6823Z" fill="#7D662D"/>
<path d="M32.2738 32.687H25.7985C25.5958 32.687 25.4414 32.5219 25.4414 32.3277C25.4414 32.1335 25.5958 31.9684 25.7888 31.9684H32.2641C32.4668 31.9684 32.6212 32.1335 32.6212 32.3277C32.6308 32.5219 32.4764 32.687 32.2738 32.687Z" fill="#7D662D"/>
<path d="M32.2738 39.2432H25.7985C25.5958 39.2432 25.4414 39.0781 25.4414 38.8839C25.4414 38.68 25.6055 38.5246 25.7985 38.5246H32.2738C32.4764 38.5246 32.6308 38.6897 32.6308 38.8839C32.6405 39.0781 32.4764 39.2432 32.2738 39.2432Z" fill="#7D662D"/>
<path d="M40.9212 44.6506C40.8633 44.6506 40.8054 44.6409 40.7572 44.6117C40.1395 44.2913 39.2903 43.6892 38.7981 42.6307C38.2095 41.3876 38.1612 39.6493 38.9622 39.2512C39.3386 39.0666 39.6956 39.2512 40.0044 39.4065C40.3325 39.5716 40.5641 39.6785 40.7958 39.5911C41.066 39.4939 41.2204 39.2123 41.3169 39.0375C42.031 37.7168 42.2433 34.0168 41.4906 32.3271C41.3555 32.0357 41.1432 31.6667 40.8247 31.5987C40.6317 31.5502 40.5062 31.356 40.5545 31.1617C40.6027 30.9675 40.7958 30.851 40.9888 30.8898C41.4713 31.0064 41.8573 31.3851 42.1468 32.026C43.0153 33.9683 42.7644 37.8819 41.9441 39.3774C41.8187 39.6105 41.5581 40.0863 41.0274 40.2708C40.4869 40.4651 40.0141 40.2223 39.6763 40.0475C39.5412 39.9795 39.3289 39.8727 39.271 39.8921C39.0587 39.9989 38.914 41.2031 39.4447 42.3102C39.8597 43.1842 40.5641 43.6892 41.0853 43.9514C41.259 44.0388 41.3362 44.2621 41.2397 44.4369C41.1818 44.5826 41.0563 44.6506 40.9212 44.6506Z" fill="#7D662D"/>
<path d="M39.4714 31.2745C39.317 31.2745 39.1819 31.1774 39.1336 31.0317C38.3616 28.701 40.1662 26.9044 40.7452 26.6131C40.9189 26.516 41.1409 26.5937 41.2277 26.7685C41.3146 26.9433 41.247 27.1666 41.0733 27.254C40.8128 27.39 39.1529 28.8175 39.8091 30.7986C39.8767 30.9929 39.7705 31.1968 39.5775 31.2551C39.5486 31.2745 39.51 31.2745 39.4714 31.2745Z" fill="#7D662D"/>
<path d="M48.474 32.687H41.9987C41.796 32.687 41.6416 32.5219 41.6416 32.3277C41.6416 32.1335 41.8057 31.9684 41.9987 31.9684H48.474C48.6766 31.9684 48.831 32.1335 48.831 32.3277C48.831 32.5219 48.667 32.687 48.474 32.687Z" fill="#7D662D"/>
<path d="M48.4745 39.2191H41.9991C41.7965 39.2191 41.6421 39.054 41.6421 38.8597C41.6421 38.6558 41.8061 38.5004 41.9991 38.5004H48.4745C48.6771 38.5004 48.8315 38.6655 48.8315 38.8597C48.8315 39.0637 48.6771 39.2191 48.4745 39.2191Z" fill="#7D662D"/>
<defs>
<linearGradient id="paint0_linear_1_799" x1="171.228" y1="-33.0128" x2="178.509" y2="224.053" gradientUnits="userSpaceOnUse">
<stop stop-color="#9C2CF3"/>
<stop offset="1" stop-color="#3A49F9"/>
</linearGradient>
</defs>
</svg>
