<svg width="24" height="20" viewBox="0 0 24 20" fill="none" xmlns="http://www.w3.org/2000/svg">
<path d="M19.7811 3.28578C17.7112 1.2282 14.9226 0.0555933 12.0042 0.0155847C9.08589 -0.024424 6.26621 1.07129 4.14064 3.07136C2.01506 5.07143 0.749967 7.81928 0.612502 10.7347C0.475038 13.65 1.47596 16.5047 3.40392 18.6959L3.41235 18.7053C3.42782 18.7217 3.44235 18.7386 3.45923 18.7545C3.49392 18.7939 3.53329 18.8384 3.5797 18.8848C3.76169 19.0783 3.98165 19.2321 4.22582 19.3366C4.46998 19.4411 4.73309 19.4941 4.99868 19.4923C5.26427 19.4904 5.52661 19.4338 5.7693 19.3259C6.01199 19.2179 6.22979 19.0611 6.40907 18.8652C7.09891 18.1154 7.93679 17.517 8.86974 17.1076C9.80269 16.6982 10.8104 16.4869 11.8292 16.4869C12.848 16.4869 13.8558 16.6982 14.7887 17.1076C15.7217 17.517 16.5595 18.1154 17.2494 18.8652C17.43 19.0621 17.6495 19.2195 17.8941 19.3272C18.1387 19.4349 18.403 19.4907 18.6703 19.4909C18.9375 19.4912 19.2019 19.436 19.4467 19.3287C19.6915 19.2215 19.9114 19.0646 20.0924 18.868L20.2428 18.7039L20.2513 18.6945C22.1509 16.5495 23.1602 13.7602 23.0731 10.8963C22.9859 8.03229 21.809 5.30956 19.7825 3.28391L19.7811 3.28578ZM11.0764 3.74281C11.0764 3.5439 11.1554 3.35314 11.2961 3.21248C11.4367 3.07183 11.6275 2.99281 11.8264 2.99281C12.0253 2.99281 12.2161 3.07183 12.3567 3.21248C12.4974 3.35314 12.5764 3.5439 12.5764 3.74281V5.24281C12.5764 5.44173 12.4974 5.63249 12.3567 5.77314C12.2161 5.9138 12.0253 5.99281 11.8264 5.99281C11.6275 5.99281 11.4367 5.9138 11.2961 5.77314C11.1554 5.63249 11.0764 5.44173 11.0764 5.24281V3.74281ZM5.82642 11.9928H4.32642C4.1275 11.9928 3.93674 11.9138 3.79609 11.7731C3.65543 11.6325 3.57642 11.4417 3.57642 11.2428C3.57642 11.0439 3.65543 10.8531 3.79609 10.7125C3.93674 10.5718 4.1275 10.4928 4.32642 10.4928H5.82642C6.02533 10.4928 6.21609 10.5718 6.35675 10.7125C6.4974 10.8531 6.57642 11.0439 6.57642 11.2428C6.57642 11.4417 6.4974 11.6325 6.35675 11.7731C6.21609 11.9138 6.02533 11.9928 5.82642 11.9928ZM8.11392 7.53031C7.97328 7.67086 7.78259 7.74981 7.58376 7.74981C7.38493 7.74981 7.19424 7.67086 7.0536 7.53031L5.99282 6.47C5.85215 6.32933 5.77313 6.13855 5.77313 5.93961C5.77313 5.74068 5.85215 5.54989 5.99282 5.40922C6.13349 5.26855 6.32428 5.18953 6.52321 5.18953C6.72215 5.18953 6.91294 5.26855 7.0536 5.40922L8.11392 6.47C8.25446 6.61064 8.33341 6.80133 8.33341 7.00016C8.33341 7.19899 8.25446 7.38968 8.11392 7.53031ZM15.1124 8.61313L12.8858 12.1522C12.7947 12.2784 12.6839 12.3892 12.5577 12.4803C12.2529 12.6929 11.8766 12.7768 11.5104 12.7136C11.1441 12.6505 10.8176 12.4455 10.6016 12.1431C10.3856 11.8407 10.2976 11.4654 10.3567 11.0985C10.4157 10.7316 10.6171 10.4028 10.917 10.1834L14.4561 7.95688C14.5366 7.9008 14.6323 7.87073 14.7303 7.87073C14.8284 7.87073 14.9241 7.9008 15.0045 7.95688C15.1056 8.02982 15.1736 8.13979 15.1938 8.26276C15.214 8.38573 15.1847 8.51169 15.1124 8.61313ZM16.5992 7.53031C16.4574 7.66503 16.2686 7.73902 16.073 7.73652C15.8775 7.73401 15.6906 7.65521 15.5523 7.51691C15.414 7.37861 15.3352 7.19175 15.3327 6.99618C15.3302 6.80061 15.4042 6.6118 15.5389 6.47L16.5992 5.40922C16.7399 5.26855 16.9307 5.18953 17.1296 5.18953C17.3286 5.18953 17.5193 5.26855 17.66 5.40922C17.8007 5.54989 17.8797 5.74068 17.8797 5.93961C17.8797 6.13855 17.8007 6.32933 17.66 6.47L16.5992 7.53031ZM19.3264 11.9928H17.8264C17.6275 11.9928 17.4367 11.9138 17.2961 11.7731C17.1554 11.6325 17.0764 11.4417 17.0764 11.2428C17.0764 11.0439 17.1554 10.8531 17.2961 10.7125C17.4367 10.5718 17.6275 10.4928 17.8264 10.4928H19.3264C19.5253 10.4928 19.7161 10.5718 19.8567 10.7125C19.9974 10.8531 20.0764 11.0439 20.0764 11.2428C20.0764 11.4417 19.9974 11.6325 19.8567 11.7731C19.7161 11.9138 19.5253 11.9928 19.3264 11.9928Z" fill="#FDC500"/>
</svg>
