<svg width="24" height="24" viewBox="0 0 24 24" fill="none" xmlns="http://www.w3.org/2000/svg">
<path fill-rule="evenodd" clip-rule="evenodd" d="M0 2.57143C0 1.88944 0.270918 1.23539 0.753154 0.753154C1.23539 0.270918 1.88944 0 2.57143 0L14.5714 0C15.2534 0 15.9075 0.270918 16.3897 0.753154C16.8719 1.23539 17.1429 1.88944 17.1429 2.57143V5.89543C16.4473 6.45257 15.996 7.25865 15.8846 8.14286H9.85714C9.35062 8.14286 8.84905 8.24263 8.38108 8.43646C7.91311 8.6303 7.4879 8.91442 7.12973 9.27259C6.77156 9.63076 6.48745 10.056 6.29361 10.5239C6.09977 10.9919 6 11.4935 6 12C6 12.5065 6.09977 13.0081 6.29361 13.4761C6.48745 13.944 6.77156 14.3692 7.12973 14.7274C7.4879 15.0856 7.91311 15.3697 8.38108 15.5635C8.84905 15.7574 9.35062 15.8571 9.85714 15.8571H15.8846C15.996 16.7413 16.4473 17.5474 17.1429 18.1046V21.4286C17.1429 22.1106 16.8719 22.7646 16.3897 23.2468C15.9075 23.7291 15.2534 24 14.5714 24H2.57143C1.88944 24 1.23539 23.7291 0.753154 23.2468C0.270918 22.7646 0 22.1106 0 21.4286L0 2.57143ZM18.7937 7.38343C18.5588 7.48075 18.3579 7.64556 18.2166 7.85703C18.0754 8.06849 18 8.31711 18 8.57143V10.2857H9.85714C9.40249 10.2857 8.96645 10.4663 8.64496 10.7878C8.32347 11.1093 8.14286 11.5453 8.14286 12C8.14286 12.4547 8.32347 12.8907 8.64496 13.2122C8.96645 13.5337 9.40249 13.7143 9.85714 13.7143H18V15.4286C18.0002 15.6827 18.0758 15.9311 18.217 16.1423C18.3583 16.3535 18.5591 16.5181 18.7938 16.6154C19.0286 16.7126 19.287 16.738 19.5362 16.6885C19.7855 16.639 20.0145 16.5167 20.1943 16.3371L23.6229 12.9086C23.8636 12.6675 23.9989 12.3407 23.9989 12C23.9989 11.6593 23.8636 11.3325 23.6229 11.0914L20.1943 7.66286C20.0146 7.48304 19.7857 7.36053 19.5364 7.31079C19.2871 7.26106 19.0286 7.28633 18.7937 7.38343Z" fill="#F9FAFC"/>
</svg>
